<svg width="116" height="94" viewBox="0 0 116 94" fill="none" xmlns="http://www.w3.org/2000/svg">
<g clip-path="url(#clip0_192_1401)">
<g clip-path="url(#clip1_192_1401)">
<path d="M98.6364 77.708C82.5389 95.1668 42.1792 104.791 42.1792 104.791L42.7279 111.545C42.7279 111.545 88.9939 101.162 107.222 83.9017C123.675 68.3225 142.674 31.1907 142.674 31.1907L125.794 35.0236C125.794 35.0236 110.387 64.9637 98.6364 77.708Z" fill="#EFEEFF"/>
<path d="M93.9899 54.9694C73.6444 81.535 20.0653 99.379 20.0653 99.379L14.8066 109.357C14.8066 109.357 71.7627 93.7641 97.4472 69.4438C120.63 47.4917 137.221 1.18948 137.221 1.18948L117.558 5.5618C117.558 5.5618 108.948 35.4377 93.9899 54.9694Z" fill="#EFEEFF"/>
</g>
</g>
<defs>
<clipPath id="clip0_192_1401">
<rect width="116" height="93" fill="white" transform="translate(0 0.190002)"/>
</clipPath>
<clipPath id="clip1_192_1401">
<rect width="116" height="93" fill="white" transform="translate(0 0.190002)"/>
</clipPath>
</defs>
</svg>
